<mxfile host="app.diagrams.net" modified="2024-03-21T12:45:39.374Z" agent="Mozilla/5.0 (Windows NT 10.0; Win64; x64) AppleWebKit/537.36 (KHTML, like Gecko) Chrome/121.0.0.0 Safari/537.36 OPR/107.0.0.0" etag="qiPqQ_Z5l1xbshKFqROq" version="24.0.2" type="device">
  <diagram name="Strona-1" id="AWiner5oOUAS1Hgjm13_">
    <mxGraphModel dx="1009" dy="550" grid="1" gridSize="10" guides="1" tooltips="1" connect="1" arrows="1" fold="1" page="1" pageScale="1" pageWidth="827" pageHeight="1169" math="0" shadow="0">
      <root>
        <mxCell id="0" />
        <mxCell id="1" parent="0" />
        <mxCell id="OU6gtnCaueoLbP9GBH95-1" value="" style="strokeWidth=1;shadow=0;dashed=0;align=center;html=1;shape=mxgraph.mockup.containers.browserWindow;rSize=0;strokeColor=#666666;strokeColor2=#008cff;strokeColor3=#c4c4c4;mainText=,;recursiveResize=0;" vertex="1" parent="1">
          <mxGeometry x="120" y="40" width="560" height="380" as="geometry" />
        </mxCell>
        <mxCell id="OU6gtnCaueoLbP9GBH95-2" value="Page 1" style="strokeWidth=1;shadow=0;dashed=0;align=center;html=1;shape=mxgraph.mockup.containers.anchor;fontSize=17;fontColor=#666666;align=left;whiteSpace=wrap;" vertex="1" parent="OU6gtnCaueoLbP9GBH95-1">
          <mxGeometry x="60" y="12" width="110" height="26" as="geometry" />
        </mxCell>
        <mxCell id="OU6gtnCaueoLbP9GBH95-3" value="https://www.scrum-board.com/panel/" style="strokeWidth=1;shadow=0;dashed=0;align=center;html=1;shape=mxgraph.mockup.containers.anchor;rSize=0;fontSize=17;fontColor=#666666;align=left;" vertex="1" parent="OU6gtnCaueoLbP9GBH95-1">
          <mxGeometry x="130" y="60" width="250" height="26" as="geometry" />
        </mxCell>
        <mxCell id="OU6gtnCaueoLbP9GBH95-4" value="" style="verticalLabelPosition=bottom;shadow=0;dashed=0;align=center;html=1;verticalAlign=top;strokeWidth=1;shape=mxgraph.mockup.containers.userMale;strokeColor=#666666;strokeColor2=#008cff;" vertex="1" parent="OU6gtnCaueoLbP9GBH95-1">
          <mxGeometry x="520" y="110" width="40" height="40" as="geometry" />
        </mxCell>
        <mxCell id="OU6gtnCaueoLbP9GBH95-10" value="Stwórz nową tablicę" style="strokeWidth=1;shadow=0;dashed=0;align=center;html=1;shape=mxgraph.mockup.buttons.button;strokeColor=#666666;fontColor=#ffffff;mainText=;buttonStyle=round;fontSize=17;fontStyle=1;fillColor=#008cff;whiteSpace=wrap;" vertex="1" parent="OU6gtnCaueoLbP9GBH95-1">
          <mxGeometry x="205" y="180" width="150" height="50" as="geometry" />
        </mxCell>
        <mxCell id="OU6gtnCaueoLbP9GBH95-11" value="Moje tablice" style="strokeWidth=1;shadow=0;dashed=0;align=center;html=1;shape=mxgraph.mockup.buttons.button;strokeColor=#666666;fontColor=#ffffff;mainText=;buttonStyle=round;fontSize=17;fontStyle=1;fillColor=#008cff;whiteSpace=wrap;" vertex="1" parent="OU6gtnCaueoLbP9GBH95-1">
          <mxGeometry x="205" y="240" width="150" height="50" as="geometry" />
        </mxCell>
      </root>
    </mxGraphModel>
  </diagram>
</mxfile>
